<mxfile host="65bd71144e">
    <diagram id="NO7dq5beg8cMwO8GqlkQ" name="Page-1">
        <mxGraphModel dx="894" dy="517" grid="1" gridSize="10" guides="1" tooltips="1" connect="1" arrows="1" fold="1" page="1" pageScale="1" pageWidth="827" pageHeight="1169" background="none" math="0" shadow="0">
            <root>
                <mxCell id="0"/>
                <mxCell id="1" parent="0"/>
                <mxCell id="9" value="Windows PC" style="rounded=1;whiteSpace=wrap;html=1;fillColor=#eeeeee;strokeColor=#36393d;arcSize=6;fontColor=#003366;verticalAlign=top;align=center;" vertex="1" parent="1">
                    <mxGeometry x="180" y="180" width="560" height="250" as="geometry"/>
                </mxCell>
                <mxCell id="4" value="" style="shape=image;verticalLabelPosition=bottom;labelBackgroundColor=#ffffff;verticalAlign=top;aspect=fixed;imageAspect=0;image=data:image/svg+xml,PHN2ZyB4bWxucz0iaHR0cDovL3d3dy53My5vcmcvMjAwMC9zdmciIHhtbG5zOmNjPSJodHRwOi8vY3JlYXRpdmVjb21tb25zLm9yZy9ucyMiIHhtbG5zOmRjPSJodHRwOi8vcHVybC5vcmcvZGMvZWxlbWVudHMvMS4xLyIgeG1sbnM6cmRmPSJodHRwOi8vd3d3LnczLm9yZy8xOTk5LzAyLzIyLXJkZi1zeW50YXgtbnMjIiB3aWR0aD0iNTgiIGhlaWdodD0iNTgiIHZlcnNpb249IjEuMSIgdmlld0JveD0iMCAwIDQ4Ljc0NSA0OC43NDciPgogCiA8ZyBmaWxsPSIjMDA3OGQ0Ij4KICA8cmVjdCB4PSIyLjI4NDhlLTE1IiB5PSItLjAwMDExMDMzIiB3aWR0aD0iMjMuMTA1IiBoZWlnaHQ9IjIzLjEwNSIvPgogIDxyZWN0IHg9IjI1LjY0IiB5PSItLjAwMDExMDMzIiB3aWR0aD0iMjMuMTA1IiBoZWlnaHQ9IjIzLjEwNSIvPgogIDxyZWN0IHg9IjIuMjg0OGUtMTUiIHk9IjI1LjY0MiIgd2lkdGg9IjIzLjEwNSIgaGVpZ2h0PSIyMy4xMDUiLz4KICA8cmVjdCB4PSIyNS42NCIgeT0iMjUuNjQyIiB3aWR0aD0iMjMuMTA1IiBoZWlnaHQ9IjIzLjEwNSIvPgogPC9nPgo8L3N2Zz4=;" vertex="1" parent="1">
                    <mxGeometry x="160" y="160" width="40" height="40" as="geometry"/>
                </mxCell>
                <mxCell id="8" value="Kaweezle" style="shape=image;verticalLabelPosition=bottom;labelBackgroundColor=none;verticalAlign=top;aspect=fixed;imageAspect=0;image=data:image/svg+xml,PHN2ZyB4bWxucz0iaHR0cDovL3d3dy53My5vcmcvMjAwMC9zdmciIHhtbG5zOnhsaW5rPSJodHRwOi8vd3d3LnczLm9yZy8xOTk5L3hsaW5rIiB2ZXJzaW9uPSIxLjEiIGlkPSJMYXllcl8xIiB4PSIwcHgiIHk9IjBweCIgdmlld0JveD0iMCAwIDUxMiA1MTIiIHN0eWxlPSJlbmFibGUtYmFja2dyb3VuZDpuZXcgMCAwIDUxMiA1MTI7IiB4bWw6c3BhY2U9InByZXNlcnZlIj4KPHN0eWxlIHR5cGU9InRleHQvY3NzIj4KCS5zdDB7ZmlsbDojOENDNUU3O30KCS5zdDF7ZmlsbDojQjg5MzdGO30KPC9zdHlsZT4KPGc+Cgk8cGF0aCBjbGFzcz0ic3QwIiBkPSJNNDUyLjEsNjcuM2MxNS4zLDMxLjYtMzEuMiwzNC45LTI4LjgsNDljNC40LDI1LjQsMS40LDYzLjEtMiwxMDAuMmMtNS44LDYyLjksNDEuMywyMTMuNi01Ni44LDI3NC4xJiMxMDsmIzk7JiM5O2MtMTguNSwxMS41LTYyLjMsMTcuOS0xMDUuNiwxOC45aC0wLjJoLTAuMmMtNDMuMy0xLTkzLjEtNy4zLTExMS42LTE4LjljLTk3LjktNjAuNS01MC44LTIxMS4yLTU2LjQtMjc0LjEmIzEwOyYjOTsmIzk7Yy0zLjYtMzcuMS02LjYtNzQuOC0yLTEwMC4yYzIuNC0xNC4xLTQ0LjEtMTcuMy0yOC44LTQ5YzEzLjEtMjcuMiw0NS41LTMuMiw1My42LTExLjdDMTU1LDEyLjUsMjA1LjQsMSwyNDUuMSwwYzQsMCwyMS44LDAsMjEuOCwwJiMxMDsmIzk7JiM5O2MzOS41LDIsODkuOSwxMi43LDEzMS42LDU1LjZDNDA2LjcsNjQuMSw0MzguOCw0MC4xLDQ1Mi4xLDY3LjN6IE0yMzcuMSwyMzIuMmMtMS44LDAuOC00LjgsMjAuMiw0LjQsMjEuMmM2LjIsMC42LDIzLDIuNiwyNywwJiMxMDsmIzk7JiM5O2M3LjctNSw2LjktMTYuOSwyLjYtMTkuOUMyNjMuNywyMjguOSwyMzkuMSwyMzEuMywyMzcuMSwyMzIuMnogTTE4Ni43LDg2LjVjLTIwLjQtMi40LTU0LjgsMTYuNy01OS45LDU3LjImIzEwOyYjOTsmIzk7Yy01LjYsNDIuMSw0NC4xLDgzLjgsOTEuNyw0Mi4xQzI0NC4xLDE2My40LDI1Myw5NC4zLDE4Ni43LDg2LjV6IE0zMjQuOSw4Ni41Yy02Ni4zLDcuNy01Ny40LDc2LjgtMzEuOCw5OS4zJiMxMDsmIzk7JiM5O2M0Ny42LDQxLjcsOTcuMywwLDkxLjctNDIuMUMzNzkuOSwxMDMuMiwzNDUuNSw4NC4yLDMyNC45LDg2LjV6Ii8+Cgk8cGF0aCBjbGFzcz0ic3QxIiBkPSJNMjU2LDE5MS4yYzEyLjUtMS44LDQyLjUsMTIuNSw0MC41LDI5LjRjLTIuNCwxOS43LTc3LjIsMjIuMi04MS4yLTEuMkMyMTIuOSwyMDUuMSwyMjQuMiwxOTUuOSwyNTYsMTkxLjJ6JiMxMDsmIzk7JiM5OyBNNDI0LjksMzQ5LjRjLTYuMi0wLjItMTAuMS04LjMtMTAuMS0xMy4zYzAtOC45LDEuMi0xOS41LDcuNy0yNEM0MzYsMzAyLjcsNDQ2LjgsMzQ5LjYsNDI0LjksMzQ5LjR6IE04Ni45LDM0OS40JiMxMDsmIzk7JiM5O2MtMjEuOCwwLjItMTEuMS00Ni42LDIuNC0zNy4zYzYuNSw0LjYsNy43LDE1LjEsNy43LDI0Qzk3LDM0MSw5MywzNDkuMiw4Ni45LDM0OS40eiBNMzgzLjQsNDkzLjNjNCw1LjgsNC4yLDkuNy0yLjIsMTIuNyYjMTA7JiM5OyYjOTtjLTI0LjIsMTEuMS00NS45LTMuOC0zNy43LTcuOUMzNjAuOCw0ODkuMywzNzEuNSw0NzUuNiwzODMuNCw0OTMuM3ogTTEyOC40LDQ5NS4zYzExLjktMTcuNywyMi42LTQsMzkuOSw0LjgmIzEwOyYjOTsmIzk7YzguMSw0LjItMTMuNSwxOS4xLTM3LjcsNy45QzEyNC4yLDUwNSwxMjQuNCw1MDEsMTI4LjQsNDk1LjN6Ii8+Cgk8cGF0aCBkPSJNNDE1LDcyLjFjMS00LjIsMTEuMy02LjIsMTcuMSwxYzYuOSw4LjUtMTAuMSwyMC4yLTEwLjksMTUuNUM0MTkuMiw3NS42LDQxMy44LDc2LjIsNDE1LDcyLjF6IE05Ni44LDcyLjEmIzEwOyYjOTsmIzk7YzEuMiw0LjItNC4yLDMuNi02LjIsMTYuNWMtMC44LDQuOC0xNy45LTYuOS0xMC45LTE1LjVDODUuMyw2NS45LDk1LjYsNjcuOSw5Ni44LDcyLjF6IE0zMjkuNCwxNjguN2MtMTIuNSwwLTIyLjYtMTAuMS0yMi42LTIyLjYmIzEwOyYjOTsmIzk7czEwLjEtMjIuNiwyMi42LTIyLjZjMTIuNSwwLDIyLjYsMTAuMSwyMi42LDIyLjZTMzQxLjksMTY4LjcsMzI5LjQsMTY4Ljd6IE0zMjMuNSwxNDMuNWM0LDAsNy4yLTMuMiw3LjItNy4yJiMxMDsmIzk7JiM5O2MwLTMuOS0zLjItNy4xLTcuMi03LjFjLTMuOSwwLTcuMSwzLjItNy4xLDcuMUMzMTYuMywxNDAuMywzMTkuNSwxNDMuNSwzMjMuNSwxNDMuNXogTTIzNS42LDIwMC43YzIuNC05LjEsMTAuNy0xMi4xLDE3LjUtMTIuMyYjMTA7JiM5OyYjOTtjMTcuMy0wLjQsMjMuOCw4LjksMjQuNCwxNi4zQzI3OC42LDIxNy4yLDIzMC4yLDIyMC4xLDIzNS42LDIwMC43eiBNMTgyLjQsMTY4LjdjLTEyLjUsMC0yMi42LTEwLjEtMjIuNi0yMi42czEwLjEtMjIuNiwyMi42LTIyLjYmIzEwOyYjOTsmIzk7czIyLjYsMTAuMSwyMi42LDIyLjZTMTk0LjksMTY4LjcsMTgyLjQsMTY4Ljd6IE0xODguMywxNDMuNWMzLjksMCw3LjEtMy4yLDcuMS03LjJjMC0zLjktMy4yLTcuMS03LjEtNy4xYy00LDAtNy4yLDMuMi03LjIsNy4xJiMxMDsmIzk7JiM5O0MxODEuMiwxNDAuMywxODQuNCwxNDMuNSwxODguMywxNDMuNXoiLz4KPC9nPgo8L3N2Zz4=;fontColor=#004C99;fontStyle=1" vertex="1" parent="1">
                    <mxGeometry x="190" y="330" width="52.96" height="52.96" as="geometry"/>
                </mxCell>
                <mxCell id="10" value="WSL Linux VM" style="rounded=1;whiteSpace=wrap;html=1;labelBackgroundColor=none;fillColor=#cce5ff;strokeColor=#36393d;fontColor=#003366;verticalAlign=top;arcSize=6;" vertex="1" parent="1">
                    <mxGeometry x="312.96" y="200" width="407.04" height="220" as="geometry"/>
                </mxCell>
                <mxCell id="3" value="" style="shape=image;verticalLabelPosition=bottom;labelBackgroundColor=#ffffff;verticalAlign=top;aspect=fixed;imageAspect=0;image=data:image/svg+xml,PHN2ZyB4bWxucz0iaHR0cDovL3d3dy53My5vcmcvMjAwMC9zdmciIHhtbG5zOnhsaW5rPSJodHRwOi8vd3d3LnczLm9yZy8xOTk5L3hsaW5rIiB2ZXJzaW9uPSIxLjEiIHg9IjBweCIgeT0iMHB4IiB2aWV3Qm94PSIwIDAgMTAwMCAxMDAwIiBlbmFibGUtYmFja2dyb3VuZD0ibmV3IDAgMCAxMDAwIDEwMDAiIHhtbDpzcGFjZT0icHJlc2VydmUiPgoKPGc+PHBhdGggZD0iTTQ5NS41LDE2MS42Yy0xLjMsMi4yLTIuNiw0LjQtMy43LDYuOGMzLjktNy43LDkuNC0xNC4yLDE2LjItMTlDNTAzLjMsMTUyLjIsNDk5LDE1Ni4xLDQ5NS41LDE2MS42QzQ5NC4yLDE2My43LDQ5OSwxNTYuMSw0OTUuNSwxNjEuNnoiLz48cGF0aCBkPSJNODcwLjgsODA2LjFjLTE0LjctOC43LTI4LjktMjQuMS0yNi4yLTQxLjFjNS0zMy41LDUuNS00Ny0wLjQtNTYuNGMtNC4yLTctMTItMTAuOS0xOC44LTEyLjdjNC40LTUuNSw2LjgtMTEuOCw4LjMtMjMuOGM0LTMxLTcuMS02Ny4xLTE0LjUtOTYuOGMtOS43LTM5LjEtMjIuNi03NC40LTQ0LjctMTA4LjNDNzM4LjQsNDExLjYsNjkzLDM2NC42LDY2MSwzMDYuM2MtMjEuMi02My40LTkuNC0xMDMtMTAuNS0xNDQuOEM2NDguNiw4MCw1OTEuNywxMCw1MDkuMywxMGgtMzAuNmMtODIsMC0xMjYuOCw1OC44LTEyNi44LDEzMS4yYzEuNSwzNi40LDMsNzIuOSw0LjQsMTA5LjNjMS43LDQzLjIsNC4zLDgyLjQtMTcuNSwxMjAuOWMtMTUuNCwyNy4zLTQyLjgsNDkuMS02Mi41LDczLjJjLTIwLjgsMjUuNS0yOC42LDUxLjgtMzkuMSw4Mi4zYy0xMy4xLDM4LjEtNDYuNSw2Ny42LTU0LjQsMTA3Yy0zLjYsMTguMSw2LDM5LjEtMS44LDU0Yy04LjEsMTUuNS0xLjgsMzEuNi02LjIsNDcuNGMtNy43LDI1LjctNDUuMywyMy41LTY2LjEsMjUuMmMtMzguNSwzLjItMjQuMiwzOS4zLTE3LjIsNjVjMTIuMiw0NC43LTQyLjcsOTIsMjQuMSwxMTAuNGMzMC42LDguNCw2Mi41LDExLjIsOTMuNCwxOC4yYzMwLjYsNi45LDU4LjksMTguOCw4OC4zLDI5YzIyLjksNy45LDQ0LjMsOS4xLDY2LjMtMi43YzI0LTEyLjgsNDEuNC0zMyw2OS4zLTM3LjJjNTQtOC4xLDExOS45LTkuMSwxNzMuNiwxLjRjMTYuNCwzLjIsMjIsMTQuMywzMi42LDI1LjdjMTcuOCwxOS4zLDQ3LDIyLjEsNzEuNywxOGMyNi00LjQsNDUuNi0yMC43LDY0LjktMzcuNGMyNy40LTIzLjcsNTcuMi0zOS40LDg5LjItNTUuOWMxNi4zLTguNCw0OC41LTIwLjUsNTIuOC00MS4zQzkyMi45LDgyOS4yLDg4Ni44LDgxNS42LDg3MC44LDgwNi4xeiBNMzgwLjIsOTI3Yy0yLjgsMjguNC0zMC40LDQ0LjQtNTUuNSw0Mi4yYy00Mi42LTMuNi04Mi44LTI2LjgtMTI1LTM0LjRDMTc5LjEsOTMxLDk2LjEsOTI3LjgsOTcsODk3LjRjMC41LTE2LjEsMTIuNi0yNS41LDE2LjUtNDAuM2M2LjEtMjIuOS0xMi42LTQzLjYtMTMuOC02NmMtMS0xNy43LDIzLjUtMTYuNiwzNS42LTE3LjZjMTkuMi0xLjUsNDEuOS00LjQsNTEuNi0yNC4yYzMuNS03LjItMS4xLTMyLjgsNC4yLTQ3LjdjNy43LTIyLjIsMzMuOS0xOS42LDUxLTEwLjdjMzguOCwxOS44LDYzLjMsNzcuNyw4NC4zLDExMy4zQzM0Ny41LDg0MC41LDM4NC43LDg4Mi4zLDM4MC4yLDkyN3ogTTYzNC42LDc4My41YzUsMjUuOCw5LjIsNTMuMywzLjcsNzkuNGMtNC40LDIwLjgtMTguNywzNC4xLTI3LjgsNTIuNWMtNC44LTE0LjksMjQuNy0zNi41LDIxLjQtNzMuN2MtMC4xLTEtMi4xLTIzLjgtMi4zLTIzLjdjLTQuMywyLjQtOC40LDExLjEtMTEuNiwxNC43Yy0xMC41LDExLjgtMjMuNiwyMS4xLTM2LjYsMjkuOWMtMzAuMiwyMC40LTYzLjksMzIuOS0xMDAuMiwzNi40Yy00NS45LDQuNC04My4xLTIzLTgzLjEtMjNjNS41LDE4LjIsMTkuNyw0NS45LDIuNCw2MS45YzMuOC0zNC4yLTEwLjctNjEuNC0yNS40LTkxLjJjMTAxLjQtNTMuOS05MC41LTE0MC44LTExNS45LTE3NC41Yy0yMi45LTMwLjQtMTIuMS02OS42LTUuOS05NS4xYy03LjUsMzAuMS04LjcsOTEuOCwzMC42LDEwMi40YzE3LjMsNC43LDEyLjMtODEuMSwxMy4xLTkwLjdjMy41LTQwLDE2LjktNzguNyw0MC4xLTExMS42YzcuNC0xMC41LDQuMS0yMC44LDUuOC0zMy41YzMuNy0yMy4zLDE2LTQ0LjksMjkuNS02My45YzExLjMtMTUuOCwzLjgtMjcuNiw2LjYtNDZjMS42LTEwLjUsMTEuMiw3LDEyLjcsOS40YzguNywxNC4yLDM2LjUsNDkuNiw1NCw0OC4xYzI5LTIuNSw1NC0zNC45LDc4LjgtNDguMmM3LjktNC4yLDMxLjUtMTEuNSwzNC43LTIxLjFjMy45LTExLjctMjcuNy0wLjQtMzAuOSwxLjNjLTIzLjYsMTIuMS02Ny44LDQ2LjktOTUuOSwzMy40Yy0xOS4yLTkuMi0yMy40LTMyLjgtMzcuNi00NC44YzMzLjcsMjkuNyw0NywyMyw2MC40LDE5LjljMjEuMS00LjgsNDEuMS0xNC4yLDYwLjgtMjNjOS4yLTQuMSw0NC04LjgsNDguOC0xOWM2LTEyLjgtMTEtMTQuNy0xNy42LTcuOGMtMTMuNywxNC4yLTM0LjcsMTkuNi01Mi43LDI1LjhjLTQxLjMsMTQuMS04Mi4zLDIwLTExMy40LTE4LjhjLTE4LjMtMjIuMywzNC00OS4yLDQ4LjYtNjNjMCwwLDIuMi0xNS43LTEuMy0yNy44Yy00LjItMTQuMi0xNy4xLTIwLjMtMjYtMTcuN2MtOSwyLjQtMTcuNSwxMi0xNC45LDMyLjRjMi4yLDE4LjIsMTUuMywyNC4xLDE1LjMsMjQuMXMtNS45LDcuNy0xMS40LDEwLjNjMCwwLTEuOC0wLjctNy43LTEzLjhjLTUuOS0xMy4xLTE0LjQtNDIuNi0wLjctNjhjMTMuOC0yNS40LDQyLjktMTEuNCw1Mi4xLDguM2M4LjUsMTguMiw1LjIsNDkuNiw1LjIsNDkuNmM3LjMtMS44LDE0LjktMi44LDIyLjUtMi44YzkuMywwLDE0LjksMTAsMjMuMiwxMC41Yy0xLjQsMC0xLjItMzkuNi0wLjUtNDMuOWMyLjQtMTQuMiw5LTI5LjgsMjEuNy0zNy43YzM1LjItMjUuMSw3NS43LDguNiw3NS43LDQ2LjRjMC4xLDkuOC0wLjMsMjAuMi0yLjYsMjkuN2MtMS40LDUuOC0zLjUsMTguNS0xMS4yLDIwLjFjLTIuNSwwLjUtMjMuNC0wLjktMTcuNS03LjJjMjgtMjgtNC04My42LTM4LjEtNTMuNmMtMTIuMyw5LjItMTIsMzAuMy0xMC41LDQzLjdjMi40LDIwLDQ0LjksMjUuMiw1OC43LDMwLjFjMTgsNi4zLDE3LjQsMjEuMSwxNC42LDM3LjRjLTQuMiwyNC42LTYuMiw0MS4xLDkuNiw2MS43YzE2LjEsMjEsMjguMyw0My45LDM0LjgsNjkuN2MzLjIsMTIuOCwzLjYsMjMuNywxMi4zLDM0LjFjMTMuMSwxNS42LDIzLjIsMzIuNCwyOS4xLDUyLjFjMTEuNCwzOC41LDE0LjIsNzcuNSwxMy41LDExNy4zYy0xLjEsMTcuOS00LjYsMzIuOCwxOC4yLDIxLjJjOC43LTQuNCwxNC4yLTYuMywyNC4xLTguMWM2LjgtMTMuOCw5LjYtNDAsOS44LTUzLjFjMC40LTI5LjUtMC43LTkwLjgtNjAuNi0xNTYuNGMwLDAsNjIuMyw0Ny41LDcyLjIsMTM1LjZjNS41LDQ4LjgtNC40LDc1LjItNC40LDc1LjJjMTEuNiwyLjgsMjMuNiwxMS42LDI5LjcsMjEuNGMtMC4zLTAuNSwyLjMsMy44LDIuNiw0LjFjLTIxLjUtMTcuOS02OS4zLTI4LjEtODYuOCwwLjVjLTQuNCw3LjItNi44LDE2LjYtNywyNS42Yy0xNS41LTIuNi0yNy4xLDAtMzYuNywxMC43QzYyNC4xLDcyMy4yLDYzMC4yLDc2MC44LDYzNC42LDc4My41QzYzOC45LDgwNi4xLDYzMC4yLDc2MC44LDYzNC42LDc4My41eiBNNDIwLjksMjEzLjJjLTAuNC0xMC43LTQuNi0xOS43LTEwLjMtMjMuNmMwLjctMC43LDEuOC0xLjUsMy43LTAuOWMzLjEsMC45LDcuNyw1LjksOS40LDEzLjhjMS41LDYuMywwLjksMTYuOC0zLjEsMTYuOEM0MjAuNywyMTcuMyw0MjAuOCwyMTUuMiw0MjAuOSwyMTMuMkM0MjAuNSwyMDIuNSw0MjAuOSwyMTUuMSw0MjAuOSwyMTMuMnogTTU0MC41LDE4Ni45YzAuOS0wLjcsMi40LTEuMyw1LTAuN2MzLjksMC45LDkuNiw2LjEsMTEuNiwxMy42YzEuNSw2LjEsMC4yLDE2LjItNC44LDE2YzAtMiwwLjEtMy45LDAuNC01LjlDNTUyLjYsMTk5LjgsNTQ3LjcsMTkxLjEsNTQwLjUsMTg2LjlDNTQxLjQsMTg2LjMsNTQ3LjcsMTkxLjEsNTQwLjUsMTg2Ljl6IE04NDAuNCw4ODYuOGMtMzguMywxNi41LTY4LjUsNDMuNy0xMDMsNjZjLTMwLjIsMTkuNS04My40LDE4LjItODcuNS0yOC4yYy0zLjQtMzguOSw5LjItNzcuMiw0LTExNi43Yy0zLjUtMjYuOC0xOC43LTYzLjItNS04OS4zYzUuOS0xMS4yLDE3LjctMTIsMjcuMy04LjdjNywyOSwzMC41LDUxLjYsNjEuMiw1MS42YzM3LjIsMCw1MS41LTMwLjYsNzQuNC01My42YzcuNCwwLjQsMTYuMiwyLjQsMTkuMiwxMC41YzUsMTIuNy00LjIsMzguMy0zLjksNDguOGMwLjcsMzQuMywxOS43LDQyLDU3LjcsNjMuNEM5MTguMiw4NDkuOCw4OTMuOSw4NjMuNiw4NDAuNCw4ODYuOEM3ODcuNyw5MDkuNSw4OTMuOSw4NjMuNiw4NDAuNCw4ODYuOHoiLz48L2c+Cjwvc3ZnPg==;" vertex="1" parent="1">
                    <mxGeometry x="320" y="210" width="64" height="64" as="geometry"/>
                </mxCell>
                <mxCell id="13" value="" style="group" vertex="1" connectable="0" parent="1">
                    <mxGeometry x="380" y="240" width="330" height="170" as="geometry"/>
                </mxCell>
                <mxCell id="12" value="Alpine distribution" style="rounded=1;whiteSpace=wrap;html=1;labelBackgroundColor=none;fillColor=#cdeb8b;strokeColor=#36393d;verticalAlign=top;fontColor=#006600;arcSize=7;" vertex="1" parent="13">
                    <mxGeometry width="330" height="170" as="geometry"/>
                </mxCell>
                <mxCell id="7" value="" style="shape=image;verticalLabelPosition=bottom;labelBackgroundColor=#ffffff;verticalAlign=top;aspect=fixed;imageAspect=0;image=data:image/svg+xml,PHN2ZyB4bWxucz0iaHR0cDovL3d3dy53My5vcmcvMjAwMC9zdmciIHdpZHRoPSIxMDAwIiBoZWlnaHQ9Ijg2NyIgdmlld0JveD0iMCAwIDEwMDAgODY3IiBmaWxsPSJub25lIj4KPHBhdGggZD0iTTM2My4yODggNTM5LjUxOVY0MzQuMTY3TDI4Ny40MjYgNTEwLjExQzI5NS41OTkgNTE1Ljc5OCAzMDMuMzAyIDUyMC40NzMgMzEwLjU0OSA1MjQuMjc0QzMxNy43OTUgNTI4LjA4MiAzMjQuNTc4IDUzMS4wMjMgMzMwLjg5OCA1MzMuMjZDMzM3LjIxNyA1MzUuNTAzIDM0My4wOCA1MzcuMDM0IDM0OC40NzMgNTM4LjAyOEMzNTMuODczIDUzOS4wMTUgMzU4LjgwOSA1MzkuNDU4IDM2My4yODggNTM5LjUxOVpNNzUxLjEzNyA1MzAuNzYxQzc1MS4yNzEgNTMwLjg3NSA3NTIuMDEgNTMxLjUgNzUzLjM3MyA1MzIuMzY2Qzc1NC43NDMgNTMzLjIzOSA3NTYuNzQ0IDUzNC4zNjEgNzU5LjQwNCA1MzUuNDY5Qzc2Mi4wNTcgNTM2LjU3IDc2NS4zNzQgNTM3LjY2NSA3NjkuMzc3IDUzOC40NzhDNzczLjM4IDUzOS4yOTcgNzc4LjA2NyA1MzkuODM0IDc4My40NjcgNTM5LjgzNEM3ODcuOTczIDUzOS44MzQgNzkyLjk0MyA1MzkuNDM4IDc5OC4zOSA1MzguNDkxQzgwMy44NDMgNTM3LjUzOCA4MDkuNzYgNTM2LjAyNyA4MTYuMTUzIDUzMy43OTdDODIyLjU1MyA1MzEuNTYgODI5LjQyNCA1MjguNjA1IDgzNi43NzEgNTI0Ljc3MUM4NDQuMTE4IDUyMC45MjkgODUxLjk0MiA1MTYuMjAxIDg2MC4yNDMgNTEwLjQyNkw4MDIuNjc0IDQ1NC4wMzJMNjExLjg3NiAyNjIuNTIzTDUyOC4xNTYgMzQ2LjI2M0w0MTUuMjIyIDIyOS44MDNMMTMxLjc4NiA1MTAuMDM2QzE0MC4wOCA1MTUuODEyIDE0Ny44OSA1MjAuNTQgMTU1LjIzMSA1MjQuMzgxQzE2Mi41NzEgNTI4LjIxNiAxNjkuNDM1IDUzMS4xNzEgMTc1LjgyOCA1MzMuNDA3QzE4Mi4yMTUgNTM1LjYzNyAxODguMTMyIDUzNy4xNDggMTkzLjU3OCA1MzguMDk1QzE5OS4wMTggNTM5LjA0OSAyMDMuOTg4IDUzOS40NDUgMjA4LjQ4OCA1MzkuNDQ1QzIxMy44ODcgNTM5LjQ0NSAyMTguNTc1IDUzOC45MDggMjIyLjU3MSA1MzguMDg4QzIyNi41NzMgNTM3LjI3NiAyMjkuODg0IDUzNi4xODEgMjMyLjU0NCA1MzUuMDczQzIzNS4yMDMgNTMzLjk3MSAyMzcuMTk4IDUzMi44NSAyMzguNTY4IDUzMS45NzdDMjM5LjkzOCA1MzEuMTA0IDI0MC42NzcgNTMwLjQ3OSAyNDAuODExIDUzMC4zNjVMMzY4Ljc2MiA0MDIuNDE0TDQxNC41MTcgMzU4LjUzOUw1NDEuMjE5IDQ4NS4yNDFMNTg1LjQ4MyA1MzAuNzYxQzU4NS42MTcgNTMwLjg3NSA1ODYuMzU2IDUzMS41IDU4Ny43MjYgNTMyLjM2NkM1ODkuMDk2IDUzMy4yMzkgNTkxLjA5MSA1MzQuMzYxIDU5My43NSA1MzUuNDY5QzU5Ni40MSA1MzYuNTcgNTk5LjcyNyA1MzcuNjY1IDYwMy43MjMgNTM4LjQ3OEM2MDcuNzI2IDUzOS4yOTcgNjEyLjQyIDUzOS44MzQgNjE3LjgyIDUzOS44MzRDNjIyLjMyIDUzOS44MzQgNjI3LjI5NiA1MzkuNDM4IDYzMi43NDMgNTM4LjQ5MUM2MzguMTg5IDUzNy41MzggNjQ0LjExMyA1MzYuMDI3IDY1MC41MDYgNTMzLjc5N0M2NTYuOSA1MzEuNTYgNjYzLjc3IDUyOC42MDUgNjcxLjExNyA1MjQuNzcxQzY3OC40NjQgNTIwLjkyOSA2ODYuMjg4IDUxNi4yMDEgNjk0LjU4OSA1MTAuNDI2TDU5Mi45MTcgNDEwLjg2M0w2MTEuODQzIDM5MS45MzhMNjk5LjgyNyA0NzkuOTIyTDc1MS4xMzcgNTMwLjc2MVpNNzUwLjA0MiAwLjA5OTk3NTZMMTAwMCA0MzMuMTUzTDc1MC4wNDIgODY2LjIwNkgyNDkuOTU4TDAgNDMzLjE1M0wyNDkuOTU4IDAuMDk5OTc1Nkg3NTAuMDQyWiIgZmlsbD0iIzBENTk3RiIvPgo8L3N2Zz4=;" vertex="1" parent="13">
                    <mxGeometry x="6" y="7" width="61.71" height="53.52" as="geometry"/>
                </mxCell>
                <mxCell id="11" value="Iknite" style="shape=image;verticalLabelPosition=bottom;labelBackgroundColor=none;verticalAlign=top;aspect=fixed;imageAspect=0;image=data:image/svg+xml,PHN2ZyB4bWxucz0iaHR0cDovL3d3dy53My5vcmcvMjAwMC9zdmciIHhtbG5zOnhsaW5rPSJodHRwOi8vd3d3LnczLm9yZy8xOTk5L3hsaW5rIiB2ZXJzaW9uPSIxLjEiIGlkPSJMYXllcl8xIiB4PSIwcHgiIHk9IjBweCIgdmlld0JveD0iMCAwIDUxMiA1MTIiIHN0eWxlPSJlbmFibGUtYmFja2dyb3VuZDpuZXcgMCAwIDUxMiA1MTI7IiB4bWw6c3BhY2U9InByZXNlcnZlIj4KPHN0eWxlIHR5cGU9InRleHQvY3NzIj4KCS5zdDB7ZmlsbDojOENDNUU3O30KCS5zdDF7ZmlsbDojQjg5MzdGO30KPC9zdHlsZT4KPGc+Cgk8cGF0aCBjbGFzcz0ic3QwIiBkPSJNNDUyLjEsNjcuM2MxNS4zLDMxLjYtMzEuMiwzNC45LTI4LjgsNDljNC40LDI1LjQsMS40LDYzLjEtMiwxMDAuMmMtNS44LDYyLjksNDEuMywyMTMuNi01Ni44LDI3NC4xJiMxMDsmIzk7JiM5O2MtMTguNSwxMS41LTYyLjMsMTcuOS0xMDUuNiwxOC45aC0wLjJoLTAuMmMtNDMuMy0xLTkzLjEtNy4zLTExMS42LTE4LjljLTk3LjktNjAuNS01MC44LTIxMS4yLTU2LjQtMjc0LjEmIzEwOyYjOTsmIzk7Yy0zLjYtMzcuMS02LjYtNzQuOC0yLTEwMC4yYzIuNC0xNC4xLTQ0LjEtMTcuMy0yOC44LTQ5YzEzLjEtMjcuMiw0NS41LTMuMiw1My42LTExLjdDMTU1LDEyLjUsMjA1LjQsMSwyNDUuMSwwYzQsMCwyMS44LDAsMjEuOCwwJiMxMDsmIzk7JiM5O2MzOS41LDIsODkuOSwxMi43LDEzMS42LDU1LjZDNDA2LjcsNjQuMSw0MzguOCw0MC4xLDQ1Mi4xLDY3LjN6IE0yMzcuMSwyMzIuMmMtMS44LDAuOC00LjgsMjAuMiw0LjQsMjEuMmM2LjIsMC42LDIzLDIuNiwyNywwJiMxMDsmIzk7JiM5O2M3LjctNSw2LjktMTYuOSwyLjYtMTkuOUMyNjMuNywyMjguOSwyMzkuMSwyMzEuMywyMzcuMSwyMzIuMnogTTE4Ni43LDg2LjVjLTIwLjQtMi40LTU0LjgsMTYuNy01OS45LDU3LjImIzEwOyYjOTsmIzk7Yy01LjYsNDIuMSw0NC4xLDgzLjgsOTEuNyw0Mi4xQzI0NC4xLDE2My40LDI1Myw5NC4zLDE4Ni43LDg2LjV6IE0zMjQuOSw4Ni41Yy02Ni4zLDcuNy01Ny40LDc2LjgtMzEuOCw5OS4zJiMxMDsmIzk7JiM5O2M0Ny42LDQxLjcsOTcuMywwLDkxLjctNDIuMUMzNzkuOSwxMDMuMiwzNDUuNSw4NC4yLDMyNC45LDg2LjV6Ii8+Cgk8cGF0aCBjbGFzcz0ic3QxIiBkPSJNMjU2LDE5MS4yYzEyLjUtMS44LDQyLjUsMTIuNSw0MC41LDI5LjRjLTIuNCwxOS43LTc3LjIsMjIuMi04MS4yLTEuMkMyMTIuOSwyMDUuMSwyMjQuMiwxOTUuOSwyNTYsMTkxLjJ6JiMxMDsmIzk7JiM5OyBNNDI0LjksMzQ5LjRjLTYuMi0wLjItMTAuMS04LjMtMTAuMS0xMy4zYzAtOC45LDEuMi0xOS41LDcuNy0yNEM0MzYsMzAyLjcsNDQ2LjgsMzQ5LjYsNDI0LjksMzQ5LjR6IE04Ni45LDM0OS40JiMxMDsmIzk7JiM5O2MtMjEuOCwwLjItMTEuMS00Ni42LDIuNC0zNy4zYzYuNSw0LjYsNy43LDE1LjEsNy43LDI0Qzk3LDM0MSw5MywzNDkuMiw4Ni45LDM0OS40eiBNMzgzLjQsNDkzLjNjNCw1LjgsNC4yLDkuNy0yLjIsMTIuNyYjMTA7JiM5OyYjOTtjLTI0LjIsMTEuMS00NS45LTMuOC0zNy43LTcuOUMzNjAuOCw0ODkuMywzNzEuNSw0NzUuNiwzODMuNCw0OTMuM3ogTTEyOC40LDQ5NS4zYzExLjktMTcuNywyMi42LTQsMzkuOSw0LjgmIzEwOyYjOTsmIzk7YzguMSw0LjItMTMuNSwxOS4xLTM3LjcsNy45QzEyNC4yLDUwNSwxMjQuNCw1MDEsMTI4LjQsNDk1LjN6Ii8+Cgk8cGF0aCBkPSJNNDE1LDcyLjFjMS00LjIsMTEuMy02LjIsMTcuMSwxYzYuOSw4LjUtMTAuMSwyMC4yLTEwLjksMTUuNUM0MTkuMiw3NS42LDQxMy44LDc2LjIsNDE1LDcyLjF6IE05Ni44LDcyLjEmIzEwOyYjOTsmIzk7YzEuMiw0LjItNC4yLDMuNi02LjIsMTYuNWMtMC44LDQuOC0xNy45LTYuOS0xMC45LTE1LjVDODUuMyw2NS45LDk1LjYsNjcuOSw5Ni44LDcyLjF6IE0zMjkuNCwxNjguN2MtMTIuNSwwLTIyLjYtMTAuMS0yMi42LTIyLjYmIzEwOyYjOTsmIzk7czEwLjEtMjIuNiwyMi42LTIyLjZjMTIuNSwwLDIyLjYsMTAuMSwyMi42LDIyLjZTMzQxLjksMTY4LjcsMzI5LjQsMTY4Ljd6IE0zMjMuNSwxNDMuNWM0LDAsNy4yLTMuMiw3LjItNy4yJiMxMDsmIzk7JiM5O2MwLTMuOS0zLjItNy4xLTcuMi03LjFjLTMuOSwwLTcuMSwzLjItNy4xLDcuMUMzMTYuMywxNDAuMywzMTkuNSwxNDMuNSwzMjMuNSwxNDMuNXogTTIzNS42LDIwMC43YzIuNC05LjEsMTAuNy0xMi4xLDE3LjUtMTIuMyYjMTA7JiM5OyYjOTtjMTcuMy0wLjQsMjMuOCw4LjksMjQuNCwxNi4zQzI3OC42LDIxNy4yLDIzMC4yLDIyMC4xLDIzNS42LDIwMC43eiBNMTgyLjQsMTY4LjdjLTEyLjUsMC0yMi42LTEwLjEtMjIuNi0yMi42czEwLjEtMjIuNiwyMi42LTIyLjYmIzEwOyYjOTsmIzk7czIyLjYsMTAuMSwyMi42LDIyLjZTMTk0LjksMTY4LjcsMTgyLjQsMTY4Ljd6IE0xODguMywxNDMuNWMzLjksMCw3LjEtMy4yLDcuMS03LjJjMC0zLjktMy4yLTcuMS03LjEtNy4xYy00LDAtNy4yLDMuMi03LjIsNy4xJiMxMDsmIzk7JiM5O0MxODEuMiwxNDAuMywxODQuNCwxNDMuNSwxODguMywxNDMuNXoiLz4KPC9nPgo8L3N2Zz4=;fontColor=#004C99;fontStyle=1" vertex="1" parent="13">
                    <mxGeometry x="40" y="90" width="52.96" height="52.96" as="geometry"/>
                </mxCell>
                <mxCell id="6" value="" style="shape=image;verticalLabelPosition=bottom;labelBackgroundColor=#ffffff;verticalAlign=top;aspect=fixed;imageAspect=0;image=data:image/svg+xml,PHN2ZyB4bWxucz0iaHR0cDovL3d3dy53My5vcmcvMjAwMC9zdmciIHdpZHRoPSIyNDk0LjQ1NDM4Mzg1MDA5NzciIGhlaWdodD0iMjQyOS4zOTIyMDk0NjI4NTE1IiB2aWV3Qm94PSIwLjUzMTY1MjE1MjUzODI5OTYgMC4xNjQ5OTk5NjE4NTMwMjczNCAyNTUuNDMyMTI4OTA2MjUgMjQ4LjczMzAwMTcwODk4NDM4IiBwcmVzZXJ2ZUFzcGVjdFJhdGlvPSJ4TWlkWU1pZCI+PHBhdGggZD0iTTgyLjA4NSAyNDQuOTM0Yy01Ljk0NiAwLTExLjU2MS0yLjY0Mi0xNS4zNi03LjQzMkw4LjkyIDE2NS42NTdjLTMuNzk5LTQuNzktNS4yODUtMTAuOS0zLjc5OS0xNi44NDdsMjAuNjQ1LTg5LjY4MmMxLjMyMS01Ljk0NiA1LjI4NS0xMC43MzYgMTAuNzM2LTEzLjM3OGw4My41NzEtMzkuOTdjMi42NDMtMS4zMiA1LjYxNi0xLjk4MSA4LjU4OS0xLjk4MSAyLjk3MyAwIDUuOTQ1LjY2IDguNTg4IDEuOTgybDgzLjU3MiAzOS44MDRjNS40NSAyLjY0MiA5LjQxNCA3LjQzMiAxMC43MzUgMTMuMzc4bDIwLjY0NSA4OS42ODJjMS4zMjIgNS45NDYgMCAxMi4wNTctMy43OTggMTYuODQ3bC01Ny44MDcgNzEuODQ1Yy0zLjc5OSA0LjYyNC05LjQxNCA3LjQzMi0xNS4zNiA3LjQzMmwtOTMuMTUuMTY1eiIgZmlsbD0iIzMyNkRFNiIvPjxwYXRoIGQ9Ik0xMjguNDk1IDcuOTI4YzIuMzEzIDAgNC42MjUuNDk1IDYuNzcyIDEuNDg2bDgzLjU3MiAzOS44MDRjNC4yOTQgMi4xNDcgNy41OTcgNi4xMTEgOC41ODggMTAuNzM2bDIwLjY0NSA4OS42ODJjMS4xNTYgNC43OSAwIDkuNzQ1LTMuMTM4IDEzLjU0M2wtNTcuODA2IDcxLjg0NmMtMi45NzMgMy43OTgtNy41OTggNS45NDUtMTIuMzg3IDUuOTQ1SDgyLjA4NWMtNC43OSAwLTkuNDE0LTIuMTQ3LTEyLjM4Ny01Ljk0NWwtNTcuODA2LTcxLjg0NmMtMi45NzMtMy43OTgtNC4xMy04Ljc1My0zLjEzOC0xMy41NDNsMjAuNjQ1LTg5LjY4MmMxLjE1Ni00Ljc5IDQuMjk0LTguNzU0IDguNTg4LTEwLjczNkwxMjEuNTYgOS4yNWMyLjE0Ny0uODI2IDQuNjI0LTEuMzIxIDYuOTM2LTEuMzIxem0wLTcuNzYzYy0zLjQ2OCAwLTYuOTM2LjgyNi0xMC4yNCAyLjMxMmwtODMuNTcxIDM5Ljk3Yy02LjYwNyAzLjEzOC0xMS4yMzEgOC45MTgtMTIuODgzIDE2LjAyTDEuMTU2IDE0OC4xNWMtMS42NTEgNy4xMDIgMCAxNC4zNjkgNC42MjUgMjAuMTVsNTcuODA2IDcxLjg0NWM0LjQ2IDUuNjE1IDExLjIzMSA4Ljc1MyAxOC4zMzMgOC43NTNoOTIuNjU1YzcuMTAyIDAgMTMuODc0LTMuMTM4IDE4LjMzMy04Ljc1M2w1Ny44MDctNzEuODQ2YzQuNjI0LTUuNjE1IDYuMjc2LTEzLjA0NyA0LjYyNC0yMC4xNWwtMjAuNjQ1LTg5LjY4MmMtMS42NTEtNy4xMDItNi4yNzYtMTIuODgyLTEyLjg4Mi0xNi4wMkwxMzguNTcgMi40NzZDMTM1LjQzMi45OTEgMTMxLjk2NC4xNjUgMTI4LjQ5NS4xNjV6IiBmaWxsPSIjRkZGIi8+PHBhdGggZD0iTTIxMi4yMzIgMTQyLjUzNGMtLjE2NSAwLS4xNjUgMCAwIDBoLS4xNjVjLS4xNjUgMC0uMzMgMC0uMzMtLjE2NS0uMzMgMC0uNjYtLjE2NS0uOTkxLS4xNjUtMS4xNTYtLjE2NS0yLjE0Ny0uMzMtMy4xMzgtLjMzLS40OTYgMC0uOTkxIDAtMS42NTItLjE2NmgtLjE2NWMtMy40NjgtLjMzLTYuMjc2LS42Ni04LjkxOS0xLjQ4Ni0xLjE1Ni0uNDk2LTEuNDg2LTEuMTU2LTEuODE3LTEuODE3IDAtLjE2NS0uMTY1LS4xNjUtLjE2NS0uMzNsLTIuMTQ3LS42NmE2NS4zMyA2NS4zMyAwIDAgMC0xLjE1Ni0yMy4yODkgNjguMDU0IDY4LjA1NCAwIDAgMC05LjI0OS0yMS42MzZsMS42NTItMS40ODZ2LS4zM2MwLS44MjYuMTY1LTEuNjUyLjgyNS0yLjQ3OCAxLjk4Mi0xLjgxNyA0LjQ2LTMuMzAzIDcuNDMzLTUuMTIuNDk1LS4zMy45OS0uNDk1IDEuNDg2LS44MjYuOTkxLS40OTUgMS44MTctLjk5IDIuODA4LTEuNjUxLjE2NS0uMTY1LjQ5NS0uMzMuODI2LS42Ni4xNjUtLjE2Ni4zMy0uMTY2LjMzLS4zMzEgMi4zMTItMS45ODIgMi44MDgtNS4yODUgMS4xNTYtNy40MzMtLjgyNi0xLjE1Ni0yLjMxMi0xLjgxNi0zLjc5OS0xLjgxNi0xLjMyIDAtMi40NzcuNDk1LTMuNjMzIDEuMzIxbC0uMzMuMzNjLS4zMy4xNjUtLjQ5Ni40OTYtLjgyNi42NjEtLjgyNi44MjYtMS40ODcgMS40ODYtMi4xNDcgMi4zMTItLjMzLjMzLS42Ni44MjYtMS4xNTYgMS4xNTYtMi4zMTMgMi40NzgtNC40NiA0LjQ2LTYuNjA3IDUuOTQ2LS40OTUuMzMtLjk5LjQ5Ni0xLjQ4Ni40OTYtLjMzIDAtLjY2MSAwLS45OTEtLjE2NmgtLjMzbC0xLjk4MyAxLjMyMmMtMi4xNDctMi4zMTItNC40NTktNC4yOTQtNi43NzEtNi4yNzZhNjUuOTU4IDY1Ljk1OCAwIDAgMC0zNC41MTktMTMuNzA5bC0uMTY1LTIuMTQ3LS4zMy0uMzNjLS40OTYtLjQ5Ni0xLjE1Ni0uOTkxLTEuMzIyLTIuMTQ3LS4xNjUtMi42NDMuMTY2LTUuNjE2LjQ5Ni04LjkxOXYtLjE2NWMwLS40OTYuMTY1LTEuMTU2LjMzLTEuNjUyLjE2NS0uOTkuMzMtMS45ODIuNDk2LTMuMTM4di0xLjQ4NmMwLTIuOTczLTIuMzEzLTUuNDUtNS4xMi01LjQ1LTEuMzIyIDAtMi42NDMuNjYtMy42MzQgMS42NTEtLjk5Ljk5MS0xLjQ4NiAyLjMxMi0xLjQ4NiAzLjc5OXYxLjMyMWMwIDEuMTU2LjE2NSAyLjE0Ny40OTUgMy4xMzguMTY1LjQ5Ni4xNjUuOTkxLjMzIDEuNjUydi4xNjVjLjMzIDMuMzAzLjgyNiA2LjI3Ni40OTYgOC45MTktLjE2NSAxLjE1Ni0uODI2IDEuNjUxLTEuMzIxIDIuMTQ3bC0uMzMuMzMtLjE2NiAyLjE0N2MtMi45NzMuMzMtNS45NDYuNjYtOC45MTkgMS4zMjEtMTIuNzE3IDIuODA4LTIzLjk0OCA5LjI1LTMyLjcwMSAxOC40OThsLTEuNjUyLTEuMTU2aC0uMzNjLS4zMyAwLS42NjEuMTY1LS45OTEuMTY1LS40OTYgMC0uOTkxLS4xNjUtMS40ODctLjQ5NS0yLjE0Ny0xLjQ4Ni00LjI5NC0zLjYzNC02LjYwNi02LjExMS0uMzMtLjMzLS42Ni0uODI2LTEuMTU2LTEuMTU2LS42NjEtLjgyNi0xLjMyMi0xLjQ4Ny0yLjE0OC0yLjMxMi0uMTY1LS4xNjYtLjQ5NS0uMzMtLjgyNS0uNjYxLS4xNjUtLjE2NS0uMzMtLjE2NS0uMzMtLjMzYTUuNzcyIDUuNzcyIDAgMCAwLTMuNjM0LTEuMzIyYy0xLjQ4NyAwLTIuOTczLjY2MS0zLjc5OSAxLjgxNy0xLjY1MiAyLjE0Ny0xLjE1NiA1LjQ1IDEuMTU2IDcuNDMyLjE2NSAwIC4xNjUuMTY2LjMzLjE2Ni4zMy4xNjUuNDk2LjQ5NS44MjYuNjYuOTkxLjY2IDEuODE3IDEuMTU2IDIuODA4IDEuNjUyLjQ5Ni4xNjUuOTkxLjQ5NSAxLjQ4Ny44MjYgMi45NzIgMS44MTYgNS40NSAzLjMwMyA3LjQzMiA1LjEyLjgyNi44MjUuODI2IDEuNjUxLjgyNiAyLjQ3N3YuMzNsMS42NTEgMS40ODdjLS4zMy40OTUtLjY2LjgyNi0uODI2IDEuMzIxLTguMjU4IDEzLjA0OC0xMS4zOTYgMjguNDA4LTkuMjQ5IDQzLjYwM2wtMi4xNDcuNjZjMCAuMTY2LS4xNjUuMTY2LS4xNjUuMzMtLjMzLjY2MS0uODI2IDEuMzIyLTEuODE3IDEuODE3LTIuNDc3LjgyNi01LjQ1IDEuMTU3LTguOTE4IDEuNDg3aC0uMTY2Yy0uNDk1IDAtMS4xNTYgMC0xLjY1MS4xNjUtLjk5MSAwLTEuOTgyLjE2NS0zLjEzOC4zMy0uMzMgMC0uNjYuMTY2LS45OTEuMTY2LS4xNjUgMC0uMzMgMC0uNDk2LjE2NS0yLjk3My42Ni00Ljc5IDMuNDY4LTQuMjk0IDYuMTEuNDk2IDIuMzEzIDIuNjQzIDMuOCA1LjI4NSAzLjguNDk2IDAgLjgyNiAwIDEuMzIyLS4xNjYuMTY1IDAgLjMzIDAgLjMzLS4xNjUuMzMgMCAuNjYtLjE2NS45OS0uMTY1IDEuMTU3LS4zMyAxLjk4My0uNjYgMi45NzQtMS4xNTYuNDk1LS4xNjUuOTktLjQ5NiAxLjQ4Ni0uNjZoLjE2NWMzLjEzOC0xLjE1NyA1Ljk0Ni0yLjE0OCA4LjU4OS0yLjQ3OGguMzNjLjk5MSAwIDEuNjUyLjQ5NSAyLjE0Ny44MjYuMTY1IDAgLjE2NS4xNjUuMzMuMTY1bDIuMzEzLS4zM2MzLjk2NCAxMi4yMjEgMTEuNTYxIDIzLjEyMiAyMS42MzYgMzEuMDUgMi4zMTIgMS44MTYgNC42MjQgMy4zMDMgNy4xMDIgNC43OWwtLjk5MSAyLjE0NmMwIC4xNjYuMTY1LjE2Ni4xNjUuMzMuMzMuNjYxLjY2IDEuNDg3LjMzIDIuNjQzLS45OSAyLjQ3OC0yLjQ3NyA0Ljk1NS00LjI5NCA3Ljc2M3YuMTY1Yy0uMzMuNDk2LS42Ni44MjYtLjk5IDEuMzIxLS42NjEuODI2LTEuMTU3IDEuNjUyLTEuODE4IDIuNjQzLS4xNjUuMTY1LS4zMy40OTUtLjQ5NS44MjYgMCAuMTY1LS4xNjUuMzMtLjE2NS4zMy0xLjMyMSAyLjgwOC0uMzMgNS45NDYgMi4xNDcgNy4xMDIuNjYuMzMgMS4zMjEuNDk2IDEuOTgyLjQ5NiAxLjk4MiAwIDMuOTY0LTEuMzIyIDQuOTU1LTMuMTM5IDAtLjE2NS4xNjUtLjMzLjE2NS0uMzMuMTY1LS4zMy4zMy0uNjYuNDk1LS44MjYuNDk2LTEuMTU2LjY2MS0xLjk4Mi45OTEtMi45NzNsLjQ5Ni0xLjQ4NmMxLjE1Ni0zLjMwMyAxLjk4Mi01Ljk0NiAzLjQ2OC04LjI1OC42Ni0uOTkxIDEuNDg3LTEuMTU2IDIuMTQ3LTEuNDg3LjE2NSAwIC4xNjUgMCAuMzMtLjE2NWwxLjE1Ny0yLjE0N2M3LjI2NyAyLjgwOCAxNS4xOTUgNC4yOTQgMjMuMTIyIDQuMjk0IDQuNzkgMCA5Ljc0NS0uNDk1IDE0LjM3LTEuNjUxYTczLjQwMiA3My40MDIgMCAwIDAgOC41ODgtMi40NzhsLjk5IDEuODE3Yy4xNjYgMCAuMTY2IDAgLjMzMS4xNjUuODI2LjE2NSAxLjQ4Ni40OTYgMi4xNDcgMS40ODcgMS4zMjEgMi4zMTIgMi4zMTIgNS4xMiAzLjQ2OCA4LjI1OHYuMTY1bC40OTYgMS40ODZjLjMzLjk5MS40OTUgMS45ODIuOTkgMi45NzMuMTY2LjMzLjMzMS40OTYuNDk2LjgyNiAwIC4xNjUuMTY2LjMzLjE2Ni4zMy45OSAxLjk4MiAyLjk3MiAzLjEzOSA0Ljk1NCAzLjEzOS42NjEgMCAxLjMyMi0uMTY2IDEuOTgyLS40OTYgMS4xNTYtLjY2IDIuMTQ3LTEuNjUyIDIuNDc4LTIuOTczLjMzLTEuMzIxLjMzLTIuODA4LS4zMy00LjEyOSAwLS4xNjUtLjE2Ni0uMTY1LS4xNjYtLjMzLS4xNjUtLjMzLS4zMy0uNjYtLjQ5NS0uODI2LS40OTYtLjk5MS0xLjE1Ni0xLjgxNy0xLjgxNy0yLjY0My0uMzMtLjQ5NS0uNjYtLjgyNS0uOTktMS4zMnYtLjE2NmMtMS44MTgtMi44MDgtMy40Ny01LjI4NS00LjI5NS03Ljc2My0uMzMtMS4xNTYgMC0xLjgxNi4xNjUtMi42NDIgMC0uMTY1LjE2NS0uMTY1LjE2NS0uMzNsLS44MjYtMS45ODJjOC43NTQtNS4xMiAxNi4xODYtMTIuMzg4IDIxLjgwMi0yMS4zMDYgMi45NzMtNC42MjUgNS4yODUtOS43NDUgNi45MzYtMTQuODY1bDEuOTgyLjMzYy4xNjYgMCAuMTY2LS4xNjUuMzMtLjE2NS42NjEtLjMzIDEuMTU3LS44MjUgMi4xNDgtLjgyNWguMzNjMi42NDMuMzMgNS40NSAxLjMyIDguNTg5IDIuNDc3aC4xNjVjLjQ5NS4xNjUuOTkuNDk1IDEuNDg2LjY2Ljk5MS40OTYgMS44MTcuODI2IDIuOTczIDEuMTU3LjMzIDAgLjY2LjE2NS45OTEuMTY1LjE2NSAwIC4zMyAwIC40OTUuMTY1LjQ5Ni4xNjUuODI2LjE2NSAxLjMyMi4xNjUgMi40NzcgMCA0LjYyNC0xLjY1MSA1LjI4NS0zLjc5OCAwLTEuOTgyLTEuODE3LTQuNjI1LTQuNzktNS40NXptLTc2LjQ3LTguMDkzbC03LjI2NyAzLjQ2OS03LjI2Ny0zLjQ2OS0xLjgxNi03Ljc2MiA0Ljk1NC02LjI3Nmg4LjA5M2w0Ljk1NSA2LjI3Ni0xLjY1MSA3Ljc2MnptNDMuMTA4LTE3LjE3NmE1Mi4wNzggNTIuMDc4IDAgMCAxIDEuMTU2IDE2LjY4bC0yNS4yNy03LjI2NmMtMi4zMTItLjY2LTMuNjMzLTIuOTczLTMuMTM4LTUuMjg1LjE2NS0uNjYxLjQ5Ni0xLjMyMi45OTEtMS44MTdsMTkuOTg1LTE4LjAwM2MyLjgwNyA0LjYyNSA0Ljk1NCA5LjkxIDYuMjc2IDE1LjY5em0tMTQuMjA0LTI1LjZsLTIxLjYzNiAxNS4zNmMtMS44MTcgMS4xNTYtNC4yOTUuODI1LTUuNzgxLS45OTEtLjQ5NS0uNDk2LS42Ni0xLjE1Ny0uODI2LTEuODE3bC0xLjQ4Ni0yNi45MjJhNTAuMTMgNTAuMTMgMCAwIDEgMjkuNzI5IDE0LjM3ek0xMTYuNzY5IDc4LjEyYzEuODE3LS4zMyAzLjQ2OC0uNjYgNS4yODUtLjk5bC0xLjQ4NiAyNi40MjVjLS4xNjUgMi4zMTItMS45ODIgNC4yOTQtNC40NiA0LjI5NC0uNjYgMC0xLjQ4Ni0uMTY1LTEuOTgyLS40OTVMOTIuMTYgOTEuNjY1YzYuNzcyLTYuNzcyIDE1LjE5NS0xMS4zOTcgMjQuNjA5LTEzLjU0NHptLTMyLjUzNyAyMy40NTNsMTkuNjU0IDE3LjUwN2MxLjgxNyAxLjQ4NyAxLjk4MiA0LjI5NC40OTYgNi4xMTEtLjQ5Ni42Ni0xLjE1NiAxLjE1Ni0xLjk4MiAxLjMyMmwtMjUuNiA3LjQzMmMtLjk5MS0xMS4yMzEgMS40ODYtMjIuNjI3IDcuNDMyLTMyLjM3MnptLTQuNDYgNDQuNzU5bDI2LjI2Mi00LjQ2YzIuMTQ3LS4xNjUgNC4xMjkgMS4zMjIgNC42MjQgMy40NjkuMTY1Ljk5LjE2NSAxLjgxNy0uMTY1IDIuNjQzbC0xMC4wNzUgMjQuMjc4Yy05LjI0OS01Ljk0Ni0xNi42ODEtMTUuMDMtMjAuNjQ1LTI1Ljkzem02MC4yODUgMzIuODY3Yy0zLjc5OS44MjYtNy41OTggMS4zMjEtMTEuNTYyIDEuMzIxLTUuNzggMC0xMS4zOTYtLjk5LTE2LjY4LTIuNjQybDEzLjA0Ny0yMy42MThjMS4zMjEtMS40ODcgMy40NjgtMi4xNDcgNS4yODUtMS4xNTZhNy4wNCA3LjA0IDAgMCAxIDEuOTgyIDEuODE2bDEyLjcxNyAyMi45NThjLTEuNDg2LjQ5NS0zLjEzOC44MjYtNC43OSAxLjMyMXptMzIuMjA2LTIyLjk1N2MtNC4xMjkgNi42MDYtOS41OCAxMS44OTEtMTUuODU1IDE2LjAybC0xMC40MDUtMjQuOTRjLS40OTYtMS45ODEuMzMtNC4xMjggMi4zMTItNS4xMi42Ni0uMzMgMS40ODYtLjQ5NSAyLjMxMi0uNDk1bDI2LjQyNiA0LjQ2Yy0uOTkxIDMuNjMzLTIuNjQzIDYuOTM3LTQuNzkgMTAuMDc1eiIgZmlsbD0iI0ZGRiIvPjwvc3ZnPg==;" vertex="1" parent="13">
                    <mxGeometry x="200" y="85.35" width="64" height="62.27" as="geometry"/>
                </mxCell>
                <mxCell id="16" style="edgeStyle=none;html=1;fontColor=#006600;strokeColor=#000000;" edge="1" parent="13" source="11" target="6">
                    <mxGeometry relative="1" as="geometry">
                        <mxPoint x="-127.03999999999996" y="126.48000000000002" as="sourcePoint"/>
                        <mxPoint x="50" y="126.48000000000002" as="targetPoint"/>
                    </mxGeometry>
                </mxCell>
                <mxCell id="15" style="edgeStyle=none;html=1;exitX=1;exitY=0.5;exitDx=0;exitDy=0;fontColor=#006600;strokeColor=#000000;" edge="1" parent="1" source="8" target="11">
                    <mxGeometry relative="1" as="geometry"/>
                </mxCell>
                <mxCell id="17" style="edgeStyle=none;html=1;exitX=1;exitY=0.5;exitDx=0;exitDy=0;fontColor=#006600;strokeColor=#000000;entryX=0;entryY=0.25;entryDx=0;entryDy=0;" edge="1" parent="1" source="8" target="10">
                    <mxGeometry relative="1" as="geometry">
                        <mxPoint x="252.96000000000004" y="366.48" as="sourcePoint"/>
                        <mxPoint x="430" y="366.48" as="targetPoint"/>
                    </mxGeometry>
                </mxCell>
            </root>
        </mxGraphModel>
    </diagram>
</mxfile>